<svg width="1200" height="800" viewBox="0 0 1200 800" xmlns="http://www.w3.org/2000/svg">
  <defs>
    <linearGradient id="land" x1="0" y1="0" x2="1" y2="1">
      <stop offset="0%" stop-color="#e9f1ff" />
      <stop offset="100%" stop-color="#f6fbff" />
    </linearGradient>
  </defs>
  <rect width="1200" height="800" fill="url(#land)" />
  <path d="M40 140 L260 110 L410 160 L560 130 L720 190 L880 150 L1120 210" fill="none" stroke="#bcd2f5" stroke-width="18" stroke-linecap="round" />
  <path d="M90 360 L300 330 L470 380 L620 340 L790 400 L980 360" fill="none" stroke="#c7d9f8" stroke-width="14" stroke-linecap="round" />
  <path d="M70 560 L240 520 L420 570 L610 530 L820 590 L1040 540" fill="none" stroke="#c1d5f7" stroke-width="12" stroke-linecap="round" />
  <path d="M210 90 L230 260 L310 430 L290 640" fill="none" stroke="#9db7e9" stroke-width="10" stroke-linecap="round" stroke-dasharray="8 20" />
  <path d="M520 70 L560 210 L640 360 L690 590" fill="none" stroke="#9db7e9" stroke-width="10" stroke-linecap="round" stroke-dasharray="8 20" />
  <path d="M870 110 L910 250 L990 420 L1030 670" fill="none" stroke="#9db7e9" stroke-width="10" stroke-linecap="round" stroke-dasharray="8 20" />
  <circle cx="360" cy="220" r="24" fill="#d7e5ff" />
  <circle cx="660" cy="260" r="18" fill="#d7e5ff" />
  <circle cx="910" cy="320" r="22" fill="#d7e5ff" />
  <circle cx="260" cy="480" r="16" fill="#d7e5ff" />
  <circle cx="740" cy="520" r="20" fill="#d7e5ff" />
  <circle cx="1060" cy="560" r="14" fill="#d7e5ff" />
</svg>
